Simulation
nRows=42
nColumns=15
endheader
time  TH_x TH_y TH_z SC_y  SC_z  SC_x  AC_y  AC_z  AC_x  GH_y  GH_z  GH_yy  EL_x  PS_y
0.0  0.000000  0.000000  0.000000  -21.457362567738166  6.430095641227581  -8.94896535573368  55.75511003623716  8.445444027234421  9.965622382406696  -158.17670387321888  2.7487480293000615  -164.4907604340087  20.96995523165644  120.000000
0.04016479400749064  0.000000  0.000000  0.000000  -21.467070346563474  6.432846047763076  -8.950960211651756  55.72164824310957  8.489514267584616  9.946591213443716  -156.61608972328708  2.6127886289346662  -166.15733297846361  20.388936584628212  120.000000
0.08032958801498127  0.000000  0.000000  0.000000  -21.494662608382146  6.442395509273443  -8.95184996068575  55.61480037572805  8.621840916274875  9.887378751259478  -150.63908266759856  2.215758965901787  -172.46057278836693  19.841073048415424  120.000000
0.12049438202247191  0.000000  0.000000  0.000000  -21.544327779525002  6.464141095901839  -8.951273381174236  55.427402517144316  8.832402553099154  9.78722087162932  -134.47164333150351  1.6450830296145758  170.8113877739753  19.30336831613417  120.000000
0.16065917602996255  0.000000  0.000000  0.000000  -21.627306057246656  6.4985687919754715  -8.959000668462307  55.15759124737789  9.100701868872042  9.648246443213733  -93.61436740437718  1.3088190004960973  129.15482705821606  18.75887551135111  120.000000
0.20082397003745317  0.000000  0.000000  0.000000  -21.76060712933895  6.541901152943236  -8.984528962834462  54.80710654056826  9.406519463185097  9.474409566404258  -49.984909604835245  1.9471813734072994  84.49206581501035  18.194856197560988  120.000000
0.24098876404494382  0.000000  0.000000  0.000000  -21.965607647003477  6.5917438496276475  -9.03231274494197  54.38336577363925  9.73213046716732  9.273514383008292  -31.538998392805752  3.3126301447459987  64.79306354200499  17.606675175234255  120.000000
0.28115355805243447  0.000000  0.000000  0.000000  -22.261026654247885  6.646426069410954  -9.09757352993754  53.89873963816183  10.065928550001402  9.053497189529418  -23.792348961673483  5.032768996038853  55.59597175414871  16.99639567969981  120.000000
0.3213183520599251  0.000000  0.000000  0.000000  -22.66093458439585  6.708676016820441  -9.168661133343305  53.37248124715722  10.404394314112958  8.820694716713982  -19.889618489268106  6.9914143266884725  50.07200866697802  16.371307572560212  120.000000
0.3614831460674157  0.000000  0.000000  0.000000  -23.169138776824575  6.782348175421479  -9.229366053839268  52.82455383735347  10.749799151761664  8.581359438024526  -17.671702388824464  9.140666797285533  46.09228727900411  15.741325867997816  120.000000
0.40164794007490634  0.000000  0.000000  0.000000  -23.781880642004108  6.870880896755483  -9.2606411121395  52.273003954969134  11.105445732639398  8.340357510233982  -16.33319237771329  11.449574391969035  42.88297178893001  15.116436058262892  120.000000
0.441812734082397  0.000000  0.000000  0.000000  -24.491195202810793  6.978323387126342  -9.2428129401799  51.733991884697716  11.472574337039408  8.100452032834673  -15.521412714056616  13.892216752747803  40.12388602353686  14.50640542232839  120.000000
0.48197752808988764  0.000000  0.000000  0.000000  -25.28515383781606  7.107982669652612  -9.158244747922813  51.22056225521837  11.849996261982753  7.8630226348004255  -15.05890466715072  16.443611187923434  37.66951586424911  13.919076125230855  120.000000
0.5221423220973783  0.000000  0.000000  0.000000  -26.150154244918255  7.261310984795447  -8.993752079531628  50.743785215273945  12.234955262945917  7.630279318302365  -14.837706284166833  19.079261378992413  35.44303745370213  13.360375501286418  120.000000
0.5623071161048689  0.000000  0.000000  0.000000  -27.070772302326255  7.437916036667633  -8.740142561593125  50.3134091167161  12.62210278212172  7.405298587896827  -14.780811506575024  21.774505062782968  33.39646701749574  12.834229203641764  120.000000
0.6024719101123596  0.000000  0.000000  0.000000  -28.03146176638836  7.635663632772977  -8.391387459803914  49.93860020981471  13.00291959599806  7.190345996221924  -14.826883883824376  24.505275385838534  31.494720131847565  12.342450717744013  120.000000
0.6426367041198502  0.000000  0.000000  0.000000  -29.017838845900407  7.851775009892796  -7.944790157952475  49.6269708033889  13.366764178312378  6.986684665218283  -14.926289586229133  27.24843011173318  29.70995626815636  11.884362988356408  120.000000
0.6828014981273408  0.000000  0.000000  0.000000  -30.017702726212264  8.083268647472268  -7.40078880622974  49.38364500826376  13.702781881466437  6.7945517462323375  -15.038891061885854  29.98273278686669  28.01856821325384  11.45658332775642  120.000000
0.7229662921348314  0.000000  0.000000  0.000000  -31.020839042652295  8.327786823413645  -6.762739267446231  49.21155692649579  14.001856991103685  6.613886670167505  -15.13120531800872  32.689045938882465  26.397730998696126  11.053310782144202  120.000000
0.7631310861423221  0.000000  0.000000  0.000000  -32.01769663807048  8.583275789908758  -6.036239646857032  49.11164939900171  14.258010438436873  6.4454103356225865  -15.17443766656427  35.35082126619082  24.824132066951282  10.667494340695086  120.000000
0.8032958801498127  0.000000  0.000000  0.000000  -32.99871346207874  8.847614663773152  -5.228436372621743  49.08275195564216  14.468940937571498  6.290836653100074  -15.146683833095372  37.95443307433062  23.27668186140751  10.291756173535038  120.000000
0.8434606741573034  0.000000  0.000000  0.000000  -33.95473172905924  9.119143149049922  -4.3474260194180125  49.120613869048675  14.634946378716029  6.151870475258782  -15.035743932441571  40.48902284354781  21.740195584907244  9.918930765764228  120.000000
0.883625468164794  0.000000  0.000000  0.000000  -34.877671603521826  9.396674504093166  -3.4027803923148134  49.21677563453647  14.758280869994726  6.029567768421194  -14.840118368576416  42.9458848179011  20.207371736711906  9.543671648126221  120.000000
0.9237902621722847  0.000000  0.000000  0.000000  -35.76032478554938  9.679327162034504  -2.4062777008878  49.358779214078666  14.84227441782924  5.924200532588935  -14.567723158799817  45.317364454186766  18.679180261482585  9.16364628639759  120.000000
0.9639550561797753  0.000000  0.000000  0.000000  -36.595497930256336  9.965630489987934  -1.3723504604194279  49.53135344140811  14.890262084714506  5.834831143047206  -14.233958817456667  47.59539217807832  17.164465373268865  8.780712793996155  120.000000
1.004119850187266  0.000000  0.000000  0.000000  -37.375617611548456  10.252980171794675  -0.3180721370775776  49.71804794555571  14.90476009973053  5.7594557791438845  -13.85884428349906  49.77029290976337  15.678472441213083  8.401072943284337  120.000000
1.0442846441947566  0.000000  0.000000  0.000000  -38.0933096159314  10.538394515036703  0.7379656603958918  49.90290274212007  14.88773278197743  5.694943215834469  -13.46431539721373  51.83130573717142  14.240872998931557  8.034465258230268  120.000000
1.0844494382022472  0.000000  0.000000  0.000000  -38.74305644796814  10.819388634823731  1.7769636616055469  50.07202440348124  14.84076531688649  5.637111539735545  -13.07107822148108  53.76840674630441  12.872985468743995  7.692695682214808  120.000000
1.1246142322097379  0.000000  0.000000  0.000000  -39.32243227991378  11.09347163217061  2.7808161814596906  50.214810367430324  14.764620754392332  5.581228693240273  -12.697037415794274  55.57283316404136  11.59605647974809  7.388009848176826  120.000000
1.1647790262172284  0.000000  0.000000  0.000000  -39.83231514308865  11.357349739513205  3.732382852202893  50.325076351454946  14.65906744701095  5.521717808979091  -12.356720374485135  57.23655030024255  10.429678461772763  7.1314490381619535  120.000000
1.2049438202247191  0.000000  0.000000  0.000000  -40.27667787389769  11.607021394489362  4.616339939004757  50.40134656982313  14.52295146206638  5.452291581909848  -12.06082801397393  58.75231120958352  9.390546883369552  6.931529258600143  120.000000
1.2451086142322096  0.000000  0.000000  0.000000  -40.66131752609931  11.838199357081072  5.420357840533746  50.44638587553889  14.355155616056077  5.3665537331992965  -11.81568747571907  60.114313642504996  8.490955338372057  6.793403043281288  120.000000
1.2852734082397004  0.000000  0.000000  0.000000  -40.99230191691145  12.046898846234185  6.136123489217952  50.465676801040765  14.155676332949186  5.259508957361124  -11.623050575655869  61.31926354236369  7.737928074116387  6.718290856137729  120.000000
1.325438202247191  0.000000  0.000000  0.000000  -41.27494500315982  12.229965036977754  6.75981485835869  50.46569280975081  13.926709884606046  5.128474283967711  -11.481027056039204  62.366926893933666  7.132764061457521  6.702950742752784  120.000000
1.3656029962546816  0.000000  0.000000  0.000000  -41.51369382596076  12.385210946582802  7.292492951432615  50.452430333961765  13.67337449103503  4.973478957854373  -11.385280290349325  63.26035124868325  6.671140828561264  6.739117015107749  120.000000
1.4057677902621724  0.000000  0.000000  0.000000  -41.7122020194815  12.511551800515802  7.739861810759947  50.430565997611154  13.403910074032874  4.797127548190838  -11.330139691397585  64.00560795091073  6.34324029915377  6.8135525649012525  120.000000
1.4459325842696629  0.000000  0.000000  0.000000  -41.87353014804182  12.608890451560486  8.111530975738017  50.40312110490634  13.129243941274561  4.604095142814438  -11.309289414925804  64.61102659084203  6.134650105591997  6.909054438040017  120.000000
1.4860973782771536  0.000000  0.000000  0.000000  -42.00022827490998  12.677984723047267  8.419580062654864  50.37172721183177  12.861911235230272  4.400252068968747  -11.316207992621926  65.0858758722975  6.027446003609482  7.006513646261388  120.000000
1.5262621722846441  0.000000  0.000000  0.000000  -42.09424083647244  12.72016592513952  8.67672099480434  50.33703263633595  12.614517753221502  4.191799930820361  -11.344235941596791  65.43870731525357  6.001869334207251  7.087673427295468  120.000000
1.5664269662921348  0.000000  0.000000  0.000000  -42.15661175557795  12.737009877686537  8.894341110400642  50.29934370524924  12.398095180579375  3.9844131456604197  -11.386572753571741  65.67543590521089  6.037771090568257  7.138068131143362  120.000000
1.6065917602996254  0.000000  0.000000  0.000000  -42.18704159478928  12.729964547081032  9.080756807953447  50.25908187588503  12.220631346902378  3.7826977574117397  -11.436230758796226  65.79755836827583  6.116145525650012  7.149588755589761  120.000000
1.646756554307116  0.000000  0.000000  0.000000  -42.183394628399775  12.700004411494549  9.239993600303572  50.21719376496956  12.086137402198622  3.589854576657801  -11.486135141181075  65.8006109728797  6.219999396789847  7.122018961079637  120.000000
